<?xml version="1.0" encoding="UTF-8"?> <svg xmlns="http://www.w3.org/2000/svg" xmlns:xlink="http://www.w3.org/1999/xlink" width="768px" height="98px" viewBox="0 0 768 98"> <!-- Generator: Sketch 50 (54983) - http://www.bohemiancoding.com/sketch --> <title>smh-logo-white</title> <desc>Created with Sketch.</desc> <defs></defs> <g id="smh-logo-white" stroke="none" stroke-width="1" fill="none" fill-rule="evenodd"> <g id="Logo-/-Metro-/-SMH-White" transform="translate(6.000000, 12.000000)" fill="#FFFFFF"> <path d="M199.982344,23.8123868 L193.196418,28.1758816 L195.589285,30.138262 L195.581922,55.9544139 C195.572105,58.252998 193.628361,59.8553305 190.889448,59.8481772 C190.877177,59.8481772 190.187541,59.8720215 189.721238,59.7742601 L189.708967,27.5583159 L183.804107,23.7885426 L176.345724,28.5597737 L176.735946,29.2107213 C176.735946,29.2107213 178.068588,28.364251 178.336099,28.1878037 C178.336099,28.1878037 180.989114,30.5722271 180.994022,32.8445825 L180.996476,59.7957199 C177.985145,60.6541123 174.910004,63.012307 174.897733,68.4058727 C174.892824,70.9238238 177.094262,74.1618707 181.168272,74.6888283 C183.327988,75.0131099 189.510175,74.1332577 189.684425,74.1046446 C190.533586,73.9758857 191.623261,73.8137449 194.72049,73.6921393 C197.331783,73.5848403 199.010472,74.6482931 199.854724,75.5424519 C200.043699,75.7451279 200.262125,75.9382661 200.519819,76.191015 L200.581174,76.1337889 C201.378797,75.3469292 202.07825,73.6134534 202.07825,72.4236261 C202.07825,69.8293735 200.961579,67.9576011 198.961387,66.8655352 C197.572297,66.1049042 195.792985,65.8211578 193.473745,65.8211578 C193.346125,65.8211578 192.712936,65.8473864 191.836778,65.9523011 C190.761829,66.0786755 189.291749,66.2074344 188.022916,66.32904 C186.108622,66.515025 184.14279,66.7582362 182.842052,66.9156081 C181.978165,67.0229072 181.408786,67.1039775 181.170726,67.1039775 C180.152224,67.1111308 179.445407,66.7701583 178.873574,66.2265097 C178.287014,65.6685547 178.129944,64.9770719 178.129944,64.6599436 C178.338553,62.3398997 181.308163,61.3455951 182.221133,61.2907534 C182.307031,61.2859845 183.03839,61.2692936 183.17828,61.3002911 C184.910962,61.6889521 188.837718,62.2993645 193.081069,62.3160554 C194.433346,62.3184398 195.837161,62.0180025 197.253248,61.4481253 C198.576074,60.9140145 199.866995,60.1390769 200.983667,59.2067673 C202.097884,58.2720734 202.706531,57.52098 203.347083,56.4122231 C204.014632,55.2605467 204.358223,54.0659505 204.355769,52.6806006 C204.348406,48.9370559 204.35086,30.1477997 204.355769,26.6188531 C204.056354,26.4257148 199.982344,23.8123868 199.982344,23.8123868" id="Fill-1"></path> <path d="M265.085512,55.6682831 L263.561439,56.664972 C263.561439,56.664972 262.314694,55.6205946 262.282789,55.5967504 L262.282789,26.978901 L257.231999,23.6812435 L248.031117,29.6017667 L247.778333,29.0605026 C246.575763,25.8343778 244.651653,24.70893 243.802492,23.9363768 L243.750953,23.8910728 L235.023737,29.5206963 L235.389416,30.0977268 C235.389416,30.0977268 236.393193,29.5040054 236.830045,29.2011836 C237.711111,30.092958 239.237637,32.5799115 239.232729,33.5670628 L239.232729,55.1341722 L236.864404,57.0631707 L243.618425,61.4481253 L250.372446,57.14901 L248.016392,55.1770918 L248.001667,31.3233204 L250.286548,29.8640533 C250.286548,29.8640533 253.562936,33.4096909 253.585024,33.4359195 L253.589932,55.6444388 C253.580115,58.2863799 255.77419,60.1581523 257.295808,61.4171278 C257.300717,61.4218967 265.46837,56.1761652 265.46837,56.1761652 L265.085512,55.6682831" id="Fill-3"></path> <path d="M104.265201,56.0688662 C104.265201,56.0688662 102.127573,57.3302261 101.80607,57.5448242 C101.80607,57.5448242 97.0203352,54.1660963 96.9589796,54.1327144 L96.9589796,43.5577967 L108.86196,35.8108052 L102.080943,23.57156 L87.9225313,32.7158237 L87.9225313,56.3168462 C90.5804546,58.1838497 96.5343991,61.5697309 96.5343991,61.5697309 L104.64806,56.4980624 L104.265201,56.0688662 L104.265201,56.0688662 Z M96.9589796,29.174955 L102.503069,38.4026734 L96.9442543,42.0269969 L96.9589796,29.174955 L96.9589796,29.174955 Z" id="Fill-6"></path> <path d="M452.551319,24.770925 C452.551319,24.770925 446.457484,28.7219145 445.409531,29.3490179 C445.134658,28.9317438 444.260955,25.9321392 441.03856,23.6979345 C440.0446,24.3441132 432.753104,29.0533494 432.753104,29.0533494 L433.08197,29.563616 C433.08197,29.563616 434.127469,28.9031307 434.318898,28.7767563 L434.893186,29.1701861 C435.919051,30.1072645 436.311727,30.7868252 436.311727,31.2708631 L436.311727,54.2018627 L433.825599,56.2023939 L440.734236,61.4171278 C440.734236,61.4171278 448.089542,56.4193764 447.863754,56.5052157 L445.188651,54.2352446 L445.188651,31.3781622 L446.710269,30.4339305 L450.129001,34.6877418 C450.129001,34.6877418 449.775593,35.1860863 449.584164,35.4292975 C449.034418,36.1470089 448.185257,37.2295371 448.199982,38.7198017 C448.204891,39.2777568 448.867531,40.5987273 449.890942,40.5987273 C449.91303,40.5987273 450.050466,40.5963429 450.072554,40.5963429 C450.752374,40.5653454 450.968345,40.4508931 451.50582,40.2601392 L451.783147,40.1623779 L451.496003,40.095614 C451.054243,39.9906994 450.664022,39.8118676 450.369515,39.5734253 C450.362152,39.5638876 450.283617,39.520968 450.261529,39.4971237 C449.890942,39.16092 449.493358,38.5576609 449.493358,38.1046205 C449.493358,37.2986854 450.00629,36.2876899 451.012521,35.1026315 C452.688756,33.2165526 456.644963,30.4172395 456.644963,30.4172395 L452.551319,24.770925" id="Fill-8"></path> <path d="M168.222247,54.0564129 C163.713839,50.9304338 158.498616,48.6342341 153.617167,47.3228012 L153.484639,47.2798816 L158.861841,39.5257368 C165.716485,40.968313 170.39178,44.623634 170.39178,48.3934073 C170.39178,50.0744258 169.596611,52.3181682 168.286056,53.972958 L168.222247,54.0564129 L168.222247,54.0564129 Z M155.72289,28.7123768 C154.778014,28.5860024 151.754412,28.0852735 151.015691,27.9231327 C148.556559,27.4319415 136.292808,23.9196858 136.292808,18.6739544 C136.292808,12.7152804 144.219948,12.7152804 148.026447,12.7152804 C148.865792,12.7152804 157.794254,13.4687582 162.0057,19.0793064 C161.961524,19.1603768 156.846924,27.0218206 155.72289,28.7123768 L155.72289,28.7123768 Z M182.628534,20.6387193 L182.751246,20.5409579 C183.354984,19.9806184 183.917001,18.8313264 183.917001,18.1446124 C183.917001,17.3458306 183.612678,16.616197 183.065386,16.0844706 C182.535274,15.5026713 181.713109,15.1736209 180.625889,15.0973194 C180.532628,15.0901661 180.002516,15.0663219 179.968157,15.0663219 C177.302871,15.0901661 174.428976,16.711574 171.398011,19.5561911 C168.735179,22.0526823 167.731402,23.9029949 166.05026,26.46625 C164.685712,28.550236 164.032888,29.5350029 163.667209,30.1001112 C163.154277,30.0381162 160.06441,29.5660004 157.296047,28.9842011 C158.18693,27.5845446 160.817857,23.120904 163.802191,18.9481631 C165.971724,15.9151766 168.595289,13.1707053 169.910752,11.6065235 C170.116907,11.3633124 170.315699,11.220247 170.556213,11.0891037 C170.735371,10.9913423 171.000427,10.8625834 171.088779,10.7648221 C171.098596,10.6479853 170.740279,10.3046284 170.678924,10.2593243 C170.50222,10.2831686 170.396688,10.3213193 170.24698,10.392852 C170.04328,10.4858446 169.770861,10.6146034 169.392911,10.6146034 C168.911883,10.6146034 168.41613,10.2187891 167.515431,9.49869328 C165.252637,7.68891594 161.038737,4.33164783 153.634346,4.31972571 C140.950923,4.30065033 133.463089,14.7468091 133.55635,21.6616369 C133.615251,25.9702899 134.466866,30.7033703 136.690392,32.6943639 C138.960548,34.7235081 142.781773,36.2066195 149.464622,37.7398037 L149.913745,37.854256 L148.841249,39.0035481 C147.084026,40.4508931 145.820101,41.8410119 142.52408,41.9196979 C140.440445,41.9196979 139.468573,41.2305995 138.722489,40.5844208 L138.565419,40.6488002 C138.739668,40.9873883 139.1937,41.7432506 139.780259,42.4395022 C140.531251,43.3217388 141.220888,43.784317 141.839352,43.8153145 C141.939975,43.8415431 142.813678,44.0561412 144.224856,43.6317139 C146.048344,43.0809121 148.01663,41.7599415 149.916199,39.6926465 L150.650012,38.8986335 L151.386278,38.1070049 L156.157287,38.929631 C156.702125,39.0488521 157.2396,39.1084627 157.71081,39.2419904 L155.744978,42.1319116 C153.266213,45.7466974 152.318883,46.8745297 152.318883,46.8745297 C152.318883,46.8745297 150.664737,46.6432406 150.227885,46.5621702 C148.868246,46.2998836 146.728164,46.1687403 143.768371,46.1925846 C137.976405,46.1401273 129.973185,48.2098067 125.148183,52.8546635 C124.154222,53.8132017 123.334512,54.8504258 122.708685,55.9401073 C121.582197,57.8214174 121.010363,59.8815592 121.010363,62.0728442 C121.010363,64.8864638 122.927111,68.1721992 128.341126,68.1721992 C135.585992,68.1721992 141.888436,61.5601932 145.213908,58.005018 L145.746474,57.4327563 C146.735526,56.3836101 147.189557,55.6492077 147.550328,55.2748532 C151.38137,56.3001552 157.605279,58.8109531 163.053653,62.2635981 C164.160508,61.1739166 167.412353,57.4327563 170.460498,53.0525706 C172.131824,50.6490719 175.987408,45.0623679 176.124844,40.7751747 C176.259826,36.6691976 172.283985,31.7382101 164.933588,30.2741741 C165.169194,29.8020583 165.608499,29.0771936 166.710445,27.429557 C169.731594,22.9063059 172.458235,18.2018386 178.203571,18.2018386 C179.23189,18.2018386 181.369518,18.4283588 182.527911,20.507576 C182.56227,20.5552645 182.581904,20.586262 182.628534,20.6387193 L182.628534,20.6387193 Z M139.610917,61.8510929 C138.21201,63.0027693 136.805741,63.9779985 135.428922,64.7505517 C133.98093,65.5207204 132.564844,66.0858288 131.141395,66.4291857 C130.672638,66.5412536 130.282417,66.6199396 129.921646,66.6747813 C129.327724,66.7653894 128.733802,66.8130779 128.15706,66.8202312 C127.884641,66.8202312 127.607314,66.8059246 127.280902,66.7773115 C124.343197,66.498334 122.514802,64.8149311 122.514802,62.3732816 C122.514802,55.9067254 133.737962,53.8966565 137.826697,53.8966565 L138.68813,53.8918876 C140.560702,53.8775811 141.871257,54.00634 145.545228,54.721667 L146.315854,54.9195741 C144.673979,57.0011757 142.769502,59.0040914 140.973011,60.6374214 C140.509163,61.0570799 140.07722,61.4672007 139.610917,61.8510929 L139.610917,61.8510929 Z" id="Fill-11"></path> <path d="M54.9966784,45.8373055 L54.8666046,45.8158457 C49.7544586,51.9485826 45.1478824,53.8871188 44.3895275,54.175634 L44.3919818,22.0407602 L44.35026,22.0407602 C50.2747538,21.7856269 54.3561263,18.4998915 54.3561263,13.1230168 C54.3438552,12.5173733 54.2309609,11.6232145 53.9045493,10.7385934 C52.2405862,12.774891 49.3912336,13.3733813 47.6610065,13.3733813 C43.4004758,13.3733813 38.8159876,12.1120213 33.9664434,10.7743598 C28.8714769,9.36993442 23.5998063,7.92020501 18.4655722,7.92020501 C10.9875554,7.92020501 2.25543074,11.3060862 2.25543074,20.8437797 C2.25543074,24.2845026 4.69492819,30.7033703 10.5678833,33.652902 L10.818214,33.7840453 C10.818214,33.7840453 9.41194439,36.7836499 9.41194439,39.4136689 C9.41194439,48.6127743 15.356072,62.6665657 32.0987798,62.6665657 C36.1261594,62.6665657 39.8369443,61.7819446 43.1305113,60.0413155 C45.7663465,58.6511967 48.1371257,56.7126605 50.1864018,54.2781642 C53.6664897,50.1340364 55.0089495,45.9374513 55.0212207,45.8969161 L54.9966784,45.8373055 L54.9966784,45.8373055 Z M27.4553903,53.6152945 C27.7867104,53.4173874 28.1401185,53.1765606 28.1401185,53.1765606 C33.70875,49.6333075 36.4108493,46.3404188 36.4108493,43.1047563 L36.4108493,21.1632924 C36.4108493,21.1632924 39.1939379,21.8976948 43.0667015,22.0073783 L43.1108775,54.6549031 C37.0268592,56.6983539 30.2875634,55.2557778 27.4553903,53.6152945 L27.4553903,53.6152945 Z M27.8284322,48.2574952 C27.7449886,49.619001 27.2860489,51.1044967 26.1620149,52.9142741 L25.7423428,52.6567563 C20.0510002,49.0991967 17.2482777,42.0913764 16.8850528,34.6305156 C16.6199967,29.1940303 19.542976,22.157597 23.8010526,17.6605745 C24.2869887,17.8036399 26.6430426,18.3806703 27.8014357,18.8885525 L27.8284322,32.5393763 L27.8284322,48.2574952 L27.8284322,48.2574952 Z M22.4954061,17.3076798 C13.9154432,25.6555461 11.1470799,32.9757258 11.1470799,32.9757258 L10.7863091,32.8088162 C8.31736102,31.5951447 7.14669675,28.5621581 7.02153139,25.9631367 C6.72457044,19.6801811 11.3434177,16.8713303 17.5182423,16.835564 C19.432536,16.8236419 21.6585161,17.0692375 22.4954061,17.3076798 L22.4954061,17.3076798 Z" id="Fill-12"></path> <path d="M496.513812,23.4618766 C496.386192,23.5501002 488.301982,28.9126684 488.301982,28.9126684 L488.645574,29.5826914 C488.645574,29.5826914 489.774516,28.8697488 489.965946,28.7409899 L490.498512,29.0867313 C491.526831,30.0261941 491.86306,30.6461442 491.86306,31.1301821 L491.86306,56.9511028 L496.263481,61.4004368 L504.659377,56.9892536 L504.026188,56.1213235 C504.026188,56.1213235 502.855524,56.6935851 502.813802,56.7126605 L500.737529,54.5905237 C500.737529,54.5905237 500.732621,27.8372934 500.735075,26.9932076 C500.676174,26.9550568 496.611981,23.5524846 496.513812,23.4618766" id="Fill-14"></path> <polyline id="Fill-15" points="491.708444 14.3176129 491.67163 14.2889998 491.708444 14.2651556 497.073375 10.2020982 501.775666 14.6681232 496.366559 18.4736629 496.344471 18.4903538 491.708444 14.3176129"></polyline> <path d="M312.572268,23.6240173 L305.786342,27.9898965 L308.181664,29.9475081 L308.176755,55.7684288 C308.164484,58.067013 306.218286,59.6717299 303.481827,59.6621922 C303.47201,59.6621922 302.775011,59.6860364 302.311163,59.5882751 L302.298892,27.3699465 L296.394032,23.6025575 L288.903744,28.3880952 L289.296419,29.0390428 C289.296419,29.0390428 290.658513,28.1758816 290.928478,27.9994342 C290.928478,27.9994342 293.579038,30.3886265 293.583947,32.6562131 L293.593764,59.7528003 C290.584886,60.6088083 287.499928,62.8239376 287.490111,68.2175033 C287.482749,70.7330699 289.686641,73.9735013 293.758196,74.5028433 C295.915458,74.8271249 302.1001,73.9448882 302.276804,73.9186596 C303.121056,73.7899007 304.21564,73.6277599 307.310415,73.5037699 C309.921708,73.3988553 311.600396,74.4599237 312.447103,75.3564668 C312.633624,75.5591428 312.849595,75.7522811 313.109743,76.0026456 L313.173553,75.9501883 C313.971175,75.1561753 314.668175,73.4250839 314.668175,72.2376411 C314.668175,69.6433884 313.551503,67.7716161 311.551312,66.6795502 C310.162222,65.9189191 308.38291,65.6327883 306.063669,65.6327883 C305.933596,65.6327883 305.300406,65.659017 304.429157,65.7639316 C303.354208,65.8926905 301.884128,66.0166805 300.612841,66.1406705 C298.701001,66.3266555 296.732714,66.5698667 295.431976,66.7296231 C294.56809,66.8345377 294.001164,66.9156081 293.760651,66.9179925 C292.742148,66.9251458 291.895441,66.6032486 291.321153,66.064369 C290.734594,65.5064139 290.538256,64.6909411 290.538256,64.3690439 C290.744411,62.0561533 293.613397,61.0642331 294.528822,61.0093914 C294.61472,61.0046226 295.677399,61.0451578 295.822198,61.0713864 C297.672682,61.4028213 301.430097,62.110995 305.670994,62.1253015 C307.028179,62.1300704 308.42954,61.8320175 309.843173,61.2597559 C311.165999,60.725645 312.45692,59.9507074 313.571137,59.0183979 C314.687808,58.0860884 315.296456,57.334995 315.939462,56.2286225 C316.607011,55.0745616 316.948148,53.8799655 316.945693,52.4898467 C316.940785,48.7534553 316.940785,29.9594302 316.945693,26.4328681 C316.648732,26.2397298 312.572268,23.6240173 312.572268,23.6240173" id="Fill-16"></path> <path d="M593.54151,39.8643249 C594.007812,39.8547872 595.060674,39.9310888 595.396902,40.0622321 C595.890201,40.2601392 596.123352,40.562961 596.228884,40.8204787 C596.314782,41.0350768 596.346686,49.0634303 596.346686,49.0634303 C596.346686,50.6204588 596.142986,51.2547154 595.76749,51.888972 C598.896624,50.3677099 602.523965,47.2631907 603.579281,45.2888881 C604.867748,42.804319 604.764671,37.8590249 604.656685,32.6228312 C604.533974,26.6617727 604.391629,19.9043169 606.247021,14.9161032 C603.954777,16.3562949 602.536236,17.5651976 600.796192,19.3105955 C598.98743,21.1322949 597.679329,22.7298586 597.26702,23.7408541 C596.027637,26.7333054 596.346686,31.2899385 596.33687,32.25563 C586.75313,33.2523189 584.971364,37.5180523 585.133343,41.1733734 C585.140705,41.3426674 585.263416,41.948311 585.366494,42.4371178 L585.479388,42.9664597 C587.425587,40.4914283 590.093327,39.9430109 593.54151,39.8643249" id="Fill-17"></path> <path d="M585.447483,14.1340123 C585.822979,14.1340123 587.477125,14.4892914 591.160914,15.2999953 C593.175831,15.7411137 595.669321,16.2919155 595.983461,16.3133753 L597.917389,16.3133753 C599.986299,16.3133753 604.298368,13.8383438 609.459599,9.69183157 L610.360299,8.98842668 C609.103736,9.50584655 607.766185,10.0351885 606.232296,10.0351885 C604.065217,10.0351885 601.480921,9.22448459 598.742008,8.3684766 C595.833754,7.45762687 592.822423,6.51339522 590.184133,6.51339522 C584.394621,6.51339522 580.509587,9.93027391 580.509587,15.0210178 C580.509587,16.2036918 580.995523,17.550891 581.817688,18.6191127 C581.636075,18.1398436 581.506001,17.6891876 581.488822,17.2051496 C581.488822,15.28092 582.971172,14.1340123 585.447483,14.1340123" id="Fill-18"></path> <path d="M629.164554,4.10751203 C630.457929,4.69169576 632.20779,5.77422397 633.189479,7.68176267 C630.322947,9.70852254 626.58762,12.3480792 625.421864,13.1134791 C623.330866,10.6217567 620.373528,7.42662937 618.221174,7.29310166 C618.221174,7.29310166 616.733915,7.266873 616.321606,7.51723746 C615.739955,7.87013212 615.666328,8.40662737 615.681054,8.8477457 L615.683508,27.6441551 L623.939513,22.5677178 L630.472654,28.9460503 L630.472654,49.9862022 C630.472654,55.9520294 626.165493,62.4018947 617.605164,67.9432946 C620.371073,68.7683051 625.095452,69.3739486 630.698443,68.2318098 C627.547221,72.8146715 623.956693,75.103718 620.022574,75.0298008 C619.485099,74.9964189 618.459234,74.8986576 617.60271,74.5862981 C613.005951,72.907664 609.800736,73.9329661 609.734472,73.8828932 C613.675954,70.7187634 616.542486,67.664317 618.498501,64.5478757 C620.481513,61.3908991 621.482836,57.5424398 621.571188,54.2114004 L621.561371,33.4740703 L615.673691,29.3370957 L615.636878,31.3590868 C615.663874,31.5116899 615.678599,31.4949989 615.676145,31.7382101 C615.656511,37.0411677 615.735046,41.8481652 614.449034,44.3351188 C613.393718,46.3094213 609.766377,49.4115561 606.634788,50.9328182 C607.012739,50.300946 607.216439,49.6619206 607.216439,48.1072765 L607.22871,21.3421242 C607.22871,20.9057747 607.361238,18.4832005 607.415231,18.125537 C607.928164,14.6061281 608.701244,10.9770358 614.326323,7.17864934 C618.542677,4.33403225 622.017857,3.06790344 624.62915,3.06790344 C626.023148,3.06790344 627.719016,3.45894888 629.164554,4.10751203" id="Fill-19"></path> <path d="M84.9504675,57.4613694 L84.9357422,57.5925127 C84.3982674,57.9668672 80.329166,60.6541123 79.0824209,61.6221882 C77.5387147,62.6665657 76.2674273,63.9446166 75.3004635,65.411037 C74.4488482,66.7868492 74.0021797,68.1793525 73.9359157,69.6696171 C73.906465,70.2394943 74.0954401,70.7330699 74.4930242,71.1431907 C75.3250058,71.989661 76.8515323,72.2161813 77.6221583,72.2161813 C77.8454926,72.2161813 78.2774358,72.2137968 78.6725656,72.192337 C79.22722,72.1589551 79.524181,72.1208043 79.921765,72.023043 L79.8923144,72.1613395 C79.7524237,72.7288323 79.249308,73.2724808 78.4615025,73.6849861 C77.7669574,74.0474184 76.9497012,74.2620165 76.2723358,74.2620165 C73.3763529,74.2620165 72.3234913,71.820367 72.3234913,70.1774993 C72.3234913,67.7668472 75.4329916,63.4295811 77.5043556,61.6150349 C77.5043556,61.6150349 73.8033876,58.7108073 73.7935707,56.354997 L73.7935707,33.280932 L70.4754615,29.687606 L68.2175766,31.1277977 L68.2175766,55.1365566 C68.3525588,55.2867753 70.5834473,57.0917838 70.5834473,57.0917838 L63.826972,61.3980524 L57.0435002,57.0297888 L59.4363674,55.0840993 L59.4290048,17.6581901 L59.4363674,15.6004327 C59.3995541,13.6189769 59.2253043,10.8196638 58.5651184,10.1043368 C58.1601716,9.66560292 57.6226968,9.3580123 56.9404229,8.94073821 C57.5392532,7.11903875 58.6485619,6.36794539 60.4425988,6.36794539 C60.8671793,6.36794539 62.2562694,6.58254349 63.110339,6.99981758 C63.7238947,5.64308068 65.137527,3.46848657 67.8715312,3.46848657 C68.3820095,3.46848657 69.4054204,3.80230584 70.006705,4.21481108 C68.0408725,6.29164384 68.222485,11.0271087 68.222485,13.7644267 L68.222485,29.5540783 L77.376736,23.6645525 L82.6729488,27.0242051 L82.6729488,52.9142741 C82.6729488,55.0840993 83.8828806,56.3478437 84.9504675,57.4613694" id="Fill-20"></path> <path d="M727.326102,55.6539765 L727.672148,56.1809341 L719.384237,61.395668 L712.853551,57.0321732 L715.005904,55.0960214 L715.005904,15.3333773 L715.018175,14.6609699 C714.981362,12.6818985 714.809566,9.88020102 714.144472,9.16248958 C713.741979,8.72852453 713.206959,8.41854949 712.52223,8.0012754 C713.121061,6.1748071 714.23037,5.430867 716.024406,5.430867 C716.451441,5.430867 717.646648,5.59539222 718.498263,6.01028188 C719.695924,5.01597734 720.724243,3.19189346 723.453339,3.19189346 C723.963817,3.19189346 724.989682,3.52094388 725.588513,3.9406024 C724.388398,5.20673121 723.988359,7.2263378 723.86074,9.22925344 C723.725758,20.3335131 723.77975,55.1961672 723.77975,55.1961672 L725.590967,56.7746555 L727.326102,55.6539765" id="Fill-21"></path> <path d="M731.235679,8.38755199 C731.191503,9.57976367 731.225862,17.3744437 731.24795,19.3034422 C732.975723,20.8771616 736.956473,24.5038696 738.708788,26.0847423 C736.944201,27.586929 733.608913,29.3490179 731.036887,30.0047343 C730.946081,30.0214253 731.353482,30.7701342 731.353482,31.6261422 L731.353482,56.1165546 L738.961573,61.6388792 C746.145083,57.1370879 751.257229,56.0044867 753.740902,55.5276021 L753.812075,29.1010378 L731.235679,8.38755199 L731.235679,8.38755199 Z M740.718796,27.8587533 L745.222295,32.0171876 L745.224749,56.3573814 L739.984983,52.7974373 L739.984983,28.4071706 L740.718796,27.8587533 L740.718796,27.8587533 Z" id="Fill-32"></path> <path d="M423.721564,23.430879 C420.526166,25.4767143 411.524077,29.2917917 406.578818,30.2741741 C406.488012,30.2908651 406.895413,31.039574 406.895413,31.8979664 L406.895413,56.3883789 L414.503503,61.9107034 C421.687013,57.4112965 426.796705,56.276311 429.280379,55.7994263 L429.354005,28.4834722 L423.721564,23.430879 L423.721564,23.430879 Z M416.145378,28.6837637 L420.764226,33.6123669 L420.764226,56.4694493 L415.526914,52.9071208 L415.526914,28.9579724 L416.145378,28.6837637 L416.145378,28.6837637 Z" id="Fill-33"></path> <path d="M209.65689,8.24448658 C209.612714,9.43431385 209.647073,17.2313783 209.666707,19.1579924 C211.396934,20.7340962 215.380138,24.3608042 217.132453,25.9416769 C215.365412,27.4438636 212.032578,29.2059525 209.460552,29.8569 C209.369746,29.873591 209.777147,30.6246844 209.777147,31.4806924 L209.777147,55.9734892 L217.385238,61.4934294 C224.566293,56.9940224 229.678439,55.8590369 232.162113,55.3821522 L232.23574,28.9579724 L209.65689,8.24448658 L209.65689,8.24448658 Z M219.140007,27.7133034 L223.643506,31.8717378 L223.64596,56.214316 L218.408648,52.6519875 L218.408648,28.2641052 L219.140007,27.7133034 L219.140007,27.7133034 Z" id="Fill-34"></path> <path d="M707.486165,56.0235621 C707.000229,55.420303 706.619825,54.5738327 706.705722,53.9705736 L706.705722,27.5797757 C706.254146,27.1577328 702.270942,23.5477158 702.270942,23.5477158 L695.391755,28.8053693 L690.272247,23.9363768 L683.572219,29.079578 L688.19352,34.0725606 C687.481795,35.0692495 685.518417,38.7937188 687.791027,41.7814013 C688.264692,42.4013514 688.416854,42.646947 688.416854,42.646947 L687.768939,42.894927 C683.513317,44.1777468 680.438176,48.7772995 680.340007,52.1035701 C680.340007,54.8480414 681.724189,59.5501243 685.626403,61.5578088 L697.544109,54.3568502 L697.607919,55.2128582 C697.745355,57.1466255 698.923382,59.2520714 700.933391,61.67703 L708.035911,56.7841932 L707.486165,56.0235621 L707.486165,56.0235621 Z M697.421398,52.6186056 L691.776685,56.028331 C689.879571,55.1222501 688.664731,53.646292 688.016816,52.3515501 C687.258461,50.8350569 686.863331,49.0753524 686.853514,47.6733115 C686.853514,47.6733115 686.814247,45.9064538 687.606961,44.9455311 C687.980003,44.4972595 688.453668,44.1753624 688.684365,44.0346814 C689.040227,43.8176989 689.508983,43.7771637 689.798582,43.9917618 C691.892034,45.5487903 694.392887,45.7657728 697.303595,45.851612 L697.421398,52.6186056 L697.421398,52.6186056 Z M695.475199,30.200257 L697.387039,32.114949 L697.374767,44.2516639 C694.25545,44.3398876 691.769323,43.6984777 690.544665,42.6588691 C685.430065,38.3192186 689.889388,32.5155321 695.475199,30.200257 L695.475199,30.200257 Z" id="Fill-37"></path> <path d="M487.197582,55.7207404 L485.675964,56.7174293 C485.675964,56.7174293 484.42431,55.6706675 484.392406,55.6468232 L484.392406,27.0289739 L479.344069,23.7337008 L470.143188,29.6542241 L469.890403,29.1081911 C468.687834,25.8868351 466.763723,24.7613873 465.914562,23.9888341 L465.863024,23.9411457 L457.133353,29.5707692 L457.501487,30.1477997 C457.501487,30.1477997 458.502809,29.5564627 458.939661,29.2512565 C459.823181,30.1454153 461.347254,32.6299844 461.342345,33.6171357 L461.342345,55.1842451 L458.97402,57.1132436 L465.730496,61.4981982 L472.484517,57.1990829 L470.130917,55.2271647 L470.113737,31.3733933 L472.396165,29.9165106 C472.396165,29.9165106 475.675006,33.4621482 475.697094,33.4859924 L475.702003,55.6968961 C475.689732,58.3388372 477.886261,60.212994 479.407879,61.4695851 C479.415242,61.474354 487.577987,56.2286225 487.577987,56.2286225 L487.197582,55.7207404" id="Fill-38"></path> <path d="M535.086831,55.7207404 L533.562759,56.7174293 C533.562759,56.7174293 532.316014,55.6706675 532.281655,55.6468232 L532.281655,27.0289739 L527.233319,23.7337008 L518.032437,29.6542241 L517.779652,29.1081911 C516.574629,25.8868351 514.650518,24.7613873 513.803811,23.9888341 L513.754727,23.9411457 L505.022602,29.5707692 L505.390736,30.1477997 C505.390736,30.1477997 506.392059,29.5564627 506.82891,29.2512565 C507.712431,30.1454153 509.238957,32.6299844 509.231594,33.6171357 L509.231594,55.1842451 L506.863269,57.1132436 L513.619745,61.4981982 L520.373766,57.1990829 L518.017712,55.2271647 L518.002987,31.3733933 L520.285414,29.9165106 C520.285414,29.9165106 523.564255,33.4621482 523.583889,33.4859924 L523.591252,55.6968961 C523.578981,58.3388372 525.77551,60.212994 527.297128,61.4695851 C527.302037,61.474354 535.46969,56.2286225 535.46969,56.2286225 L535.086831,55.7207404" id="Fill-40"></path> <path d="M284.93772,56.0521752 L282.476134,57.5305177 C282.476134,57.5305177 277.707579,54.1660963 277.64377,54.1327144 L277.64377,43.5577967 L289.549204,35.8108052 L282.765733,23.57156 L268.604867,32.7158237 L268.604867,56.3168462 C271.267699,58.1838497 277.224098,61.5697309 277.224098,61.5697309 L285.337758,56.4980624 L284.93772,56.0521752 L284.93772,56.0521752 Z M277.64377,29.174955 L283.187859,38.4026734 L277.633953,42.0269969 L277.64377,29.174955 L277.64377,29.174955 Z" id="Fill-42"></path> <path d="M651.848935,56.1165546 L649.389804,57.5948971 C649.389804,57.5948971 644.618794,54.2328602 644.557439,54.1994783 L644.557439,43.6245606 L656.460419,35.8751846 L649.679402,23.6359395 L635.518536,32.7802031 L635.518536,56.3836101 C638.181368,58.2482291 644.135313,61.6364948 644.135313,61.6364948 L652.246519,56.5600574 L651.848935,56.1165546 L651.848935,56.1165546 Z M644.557439,29.2393344 L650.101528,38.4694373 L644.545168,42.0937608 L644.557439,29.2393344 L644.557439,29.2393344 Z" id="Fill-44"></path> <path d="M676.945817,24.7661561 C676.945817,24.7661561 670.851982,28.7171457 669.804029,29.3466334 C669.529156,28.9269749 668.652998,25.9273703 665.435512,23.6931656 C664.439098,24.3393444 657.145148,29.0485805 657.145148,29.0485805 L657.478922,29.5612315 C657.478922,29.5612315 658.521967,28.9007463 658.713396,28.7719874 L659.28523,29.1654173 C660.316003,30.1048801 660.706225,30.7820563 660.706225,31.2660943 L660.706225,54.1994783 L658.222551,56.2000095 L665.131188,61.412359 C665.131188,61.412359 672.481586,56.416992 672.258251,56.5028312 L669.583149,54.2304758 L669.583149,31.3757777 L671.104767,30.4291616 L674.523499,34.6853574 C674.523499,34.6853574 674.170091,35.1813174 673.981116,35.426913 C673.428916,36.1422401 672.579755,37.2271527 672.596934,38.7174173 C672.601843,39.2753724 673.262029,40.5939585 674.285439,40.5939585 C674.307527,40.5939585 674.447418,40.5915741 674.467052,40.5891896 C675.146872,40.5581921 675.360389,40.4485087 675.900318,40.2577548 L676.180099,40.1599934 L675.890501,40.0908452 C675.451195,39.988315 675.05852,39.8070988 674.764013,39.5686564 C674.754196,39.5615032 674.680569,39.5161991 674.656027,39.4947393 C674.285439,39.1561512 673.887855,38.5528921 673.887855,38.1022361 C673.887855,37.2939165 674.398334,36.2853055 675.407019,35.0978626 C677.083253,33.2141681 681.037006,30.4148551 681.037006,30.4148551 L676.945817,24.7661561" id="Fill-45"></path> <path d="M547.009446,29.0151986 L553.022292,34.3586914 L553.019837,54.0397219 L551.157082,55.5419086 L551.007375,55.482298 C548.803483,54.6644408 546.094021,51.0043509 546.094021,48.9561313 L546.089112,29.4515481 L547.009446,29.0151986 L547.009446,29.0151986 Z M561.614526,51.8675122 L561.614526,28.7672186 C561.614526,28.7672186 557.268097,24.9592944 555.532962,23.306889 C554.080062,24.3727263 545.276764,28.2688741 536.878414,30.6747573 C537.153287,30.9704258 537.707941,31.6046824 537.707941,31.6046824 L537.641677,45.9565267 C537.592593,48.3481033 537.663765,51.3357858 538.544831,53.927654 C539.509341,56.7698867 541.283744,58.9182521 543.973572,60.4991248 L544.638667,60.9044768 L530.877839,72.1637239 C530.995642,72.2495632 531.066815,73.6420664 531.101174,73.6420664 C531.383409,73.6420664 531.766268,73.4680035 532.257113,73.2438677 C533.302612,72.7669831 534.880677,72.051656 537.582776,72.051656 C541.332828,72.051656 545.303761,74.4241573 547.210692,75.5662961 C547.546921,75.7665877 547.892966,75.9716481 548.062307,76.0551029 C549.215792,75.7928163 553.623576,72.5404628 557.518428,69.0997399 C559.734591,67.1421283 561.609617,65.2822781 562.939806,63.7252496 C564.527688,61.8606306 565.335127,60.4418986 565.335127,59.5095891 C565.335127,58.269689 564.476149,57.1800075 563.568087,56.0259466 C562.699292,54.924343 561.614526,53.5461463 561.614526,51.8675122 L561.614526,51.8675122 Z M555.240909,69.8246046 L554.14878,69.2213455 C551.395142,67.7096211 548.793666,66.3361932 545.82651,66.3266555 C545.662077,66.3481153 545.394567,66.3266555 545.043613,66.3624219 C544.103646,66.4649521 542.564848,66.684319 541.212572,66.9728343 L540.702093,65.9618388 C540.702093,65.9618388 551.40005,57.2014673 552.371923,56.4432206 C553.778192,57.4852137 555.550141,59.6812676 556.352672,60.9497808 C557.196925,62.2779046 557.474252,63.6251038 557.474252,65.1082152 C557.474252,66.779696 557.061942,67.8240734 555.240909,69.8246046 L555.240909,69.8246046 Z" id="Fill-47"></path> <path d="M603.135067,51.6529141 C593.568506,51.9581203 585.813162,60.4585896 585.935873,68.8684508 C585.984958,72.2781763 587.219432,77.3498448 592.267768,77.3498448 C594.40785,77.3498448 596.035,76.4342262 596.035,73.6086845 C596.035,73.11034 595.949102,72.1947215 595.605511,71.696377 C595.264374,72.6096111 593.551327,74.8557379 591.840733,74.8557379 C588.159399,74.7722831 587.133534,71.8609022 587.133534,69.4526346 C587.133534,64.2975112 591.067653,58.3078397 597.4879,58.3078397 C601.083336,58.3078397 604.592875,59.8028732 608.099959,63.6298727 C608.099959,63.6298727 615.676145,58.2124628 615.622152,58.1480834 C611.283086,52.806975 608.72824,51.4788512 603.135067,51.6529141" id="Fill-48"></path> <path d="M365.166263,48.965669 C364.815309,50.3510189 362.417533,54.9791847 359.769427,55.048333 C357.521359,55.1055591 356.628022,55.0984059 354.713728,54.6095991 C353.385993,54.2662421 352.242325,54.0468752 351.002943,53.9538826 C350.369753,53.9038098 349.805282,53.8751967 349.375793,53.8751967 C342.766571,53.8751967 340.744292,59.5358178 340.732021,63.0003849 C340.709933,69.0711268 343.640275,75.5567584 351.601773,75.4733036 C353.999549,75.4733036 359.217227,74.1451798 359.217227,69.4025617 C359.217227,69.235652 358.704294,66.4935652 357.334838,66.4935652 L356.311427,66.4935652 C356.478314,67.3233445 357.077144,68.6538527 357.077144,69.0711268 C357.077144,72.147033 352.713536,73.8089761 350.828693,73.8089761 C346.553437,73.8089761 342.528512,71.3148692 342.528512,66.1597459 C342.528512,63.3294354 343.981412,60.3655971 347.407507,60.3655971 C350.401658,60.3655971 354.043725,62.1562991 356.954433,62.110995 C363.598014,61.9989271 365.055823,57.7260404 365.166263,48.965669" id="Fill-49"></path> <path d="M346.550983,20.4121991 L346.681057,20.2953623 C345.419586,19.3034422 344.872294,18.0850018 344.872294,17.3052954 C344.872294,15.1450078 346.749775,12.8583458 350.224954,12.8583458 C350.863052,12.8583458 352.703719,13.2374691 355.042594,13.7358136 C356.041462,13.9456429 357.175313,14.1888541 357.386376,14.1983917 C360.257817,14.26754 364.803038,11.2941641 367.54195,8.38278314 L367.679387,8.23256447 L367.55913,8.23494889 C365.119632,8.23971774 363.21761,7.50293092 361.379397,6.78998833 C359.489645,6.06035478 357.538538,5.29972372 355.057319,5.29972372 C349.461691,5.29972372 343.200969,9.43192942 343.200969,14.9566384 C343.200969,15.9318675 344.351999,19.3272864 346.550983,20.4121991" id="Fill-50"></path> <path d="M403.736828,55.1604009 C403.736828,55.1604009 402.872942,55.842346 402.431181,55.7708133 C402.254477,55.7422002 401.950154,55.63967 401.545207,55.4298407 C400.308279,54.6620564 399.061534,53.0644927 399.061534,50.6419186 L399.061534,16.5017447 C399.061534,14.4177587 399.930328,13.1587832 400.394177,12.4863758 L400.376997,12.3671546 C399.478751,11.670903 398.452886,10.8244327 397.306764,9.87304775 C395.247671,8.16580061 392.4744,6.08419901 390.947873,4.91821598 C390.947873,4.91821598 382.934836,11.2393223 382.372819,11.6756718 L378.669396,8.78098184 C377.162504,7.55300381 374.887439,5.70030685 374.178169,5.2472664 C373.009959,5.87198533 356.335969,19.6849499 356.335969,19.6849499 L356.335969,31.1850239 L355.886846,31.24225 C346.582888,32.4630748 345.858892,39.4136689 345.858892,41.5143459 C345.858892,41.7742481 346.143582,42.8591607 346.384096,43.7103998 L346.445451,43.9273824 L346.553437,43.7270908 C347.149813,42.5658766 348.033333,41.5453434 349.110737,40.7775591 C350.195504,40.0050059 351.461883,39.504277 352.760166,39.3254453 C355.754318,38.9224777 356.009557,39.1466135 356.164173,39.2801412 L356.335969,39.4303599 L356.318789,51.7530599 C356.272159,52.9881912 356.070913,53.5699905 355.724868,54.1494054 C358.966896,52.5780704 362.721857,49.3614832 363.81644,47.315648 C365.151537,44.7404707 365.065639,44.7619305 365.065639,39.2682191 L365.065639,38.6625756 L372.825892,38.6625756 L372.825892,52.9715002 L370.123793,55.701665 L379.317311,61.6460324 L387.889911,55.498989 L386.643166,54.8385037 C386.643166,54.8385037 386.304483,55.0793305 386.181772,55.1794763 C385.943713,55.3702301 385.639389,55.5180644 385.352245,55.5180644 C384.439274,55.5180644 381.808347,53.2838597 381.587467,52.7139825 L381.555562,38.6220404 L389.990726,38.6268092 L389.990726,52.0701882 C389.973547,53.0191887 389.94655,54.6048302 391.058313,56.9749471 C391.286556,57.4089121 393.959204,60.7637958 395.954487,61.7652536 C396.867458,61.3002911 404.630165,55.6897429 404.630165,55.6897429 L403.736828,55.1604009 L403.736828,55.1604009 Z M372.825892,30.7701342 L365.065639,30.7701342 L365.065639,15.2141561 L368.317485,12.5626773 C368.346935,12.588906 372.786624,16.2466114 372.825892,16.2704557 L372.825892,30.7701342 L372.825892,30.7701342 Z M390.233694,30.7701342 L381.555562,30.7701342 L381.555562,15.0067113 L384.660154,12.6008281 L390.233694,17.708263 L390.233694,30.7701342 L390.233694,30.7701342 Z" id="Fill-51"></path> </g> </g> </svg> 